<?xml version="1.0" ?><!DOCTYPE svg  PUBLIC '-//W3C//DTD SVG 1.1//EN'  'http://www.w3.org/Graphics/SVG/1.1/DTD/svg11.dtd'><svg enable-background="new 0 0 512 512" height="512px" id="Layer_1" version="1.1" viewBox="0 0 512 512" width="512px" xml:space="preserve" xmlns="http://www.w3.org/2000/svg" xmlns:xlink="http://www.w3.org/1999/xlink"><path d="M400,160c-5.312,0-10.562,0.375-15.792,1.125C354.334,120.417,307.188,96,256,96  c-51.188,0-98.312,24.417-128.208,65.125c-5.23-0.75-10.48-1.125-15.792-1.125C50.25,160,0,210.25,0,272s50.25,112,112,112  c13.688,0,27.084-2.5,39.709-7.333C180.666,401.917,217.5,416,256,416c38.542,0,75.333-14.083,104.291-39.333  C372.916,381.5,386.312,384,400,384c61.75,0,112-50.25,112-112S461.75,160,400,160z" fill="#1D1D1B"/></svg>