<?xml version="1.0" ?><!DOCTYPE svg  PUBLIC '-//W3C//DTD SVG 1.1//EN'  'http://www.w3.org/Graphics/SVG/1.1/DTD/svg11.dtd'><svg enable-background="new 0 0 512 512" height="512px" id="Layer_1" version="1.1" viewBox="0 0 512 512" width="512px" xml:space="preserve" xmlns="http://www.w3.org/2000/svg" xmlns:xlink="http://www.w3.org/1999/xlink"><g><g><path d="M417.042,70.792C393.062,46.229,359.917,32,325.312,32c-34.562,0-67.688,14.229-91.666,38.792    c-52.813,2.438-95.021,46.167-95.021,99.542c0,54.978,44.709,99.708,99.688,99.708c5.834,0,11.604-0.501,17.271-1.5    c20.729,13.521,44.917,20.833,69.729,20.833c24.854,0,49.062-7.312,69.771-20.833c5.707,0.999,11.458,1.5,17.291,1.5    c54.938,0,99.625-44.73,99.625-99.708C512,116.958,469.812,73.208,417.042,70.792z M144,256.688H16c-8.833,0-16,7.146-16,16    s7.167,16,16,16h128c8.833,0,16-7.146,16-16S152.833,256.688,144,256.688z M16,224.688h64c8.833,0,16-7.146,16-16s-7.167-16-16-16    H16c-8.833,0-16,7.146-16,16S7.167,224.688,16,224.688z M48,160.688h64c8.833,0,16-7.146,16-16s-7.167-16-16-16H48    c-8.833,0-16,7.146-16,16S39.167,160.688,48,160.688z M224,384c0,17.688,14.312,32,32,32c17.688,0,32-14.312,32-32s-32-64-32-64    S224,366.312,224,384z M352,448c0,17.688,14.312,32,32,32s32-14.312,32-32s-32-64-32-64S352,430.312,352,448z" fill="#1D1D1B"/></g></g></svg>